<svg width="31" height="30" viewBox="0 0 31 30" fill="none" xmlns="http://www.w3.org/2000/svg">
<path d="M15.9981 15.6911C12.7789 15.6911 10.145 13.0572 10.145 9.83804C10.145 6.61886 12.7789 3.98499 15.9981 3.98499C19.2173 3.98499 21.8511 6.61886 21.8511 9.83804C21.8511 13.0572 19.2173 15.6911 15.9981 15.6911ZM15.9981 6.76519C14.3153 6.76519 12.9252 8.15529 12.9252 9.83804C12.9252 11.5208 14.3153 12.9109 15.9981 12.9109C17.6808 12.9109 19.0709 11.5208 19.0709 9.83804C19.0709 8.15529 17.6808 6.76519 15.9981 6.76519Z" fill="white"/>
<path d="M22.29 16.2764C21.7778 15.6179 20.8999 15.5448 20.2414 15.9837C20.2414 15.9837 18.6318 17.1544 15.998 17.1544C13.3641 17.1544 11.7545 15.9837 11.7545 15.9837C11.096 15.4716 10.2181 15.6179 9.70592 16.2764C9.19377 16.9349 9.3401 17.8128 9.99857 18.325C10.0717 18.3981 11.6082 19.5687 14.1689 19.9346L10.2912 23.8854C9.70592 24.4707 9.70592 25.4218 10.2912 25.9339C10.5839 26.2266 10.9497 26.3729 11.3155 26.3729C11.6813 26.3729 12.0471 26.2266 12.3398 25.9339L15.998 22.2026L19.6561 25.9339C19.9488 26.2266 20.3146 26.3729 20.6804 26.3729C21.0462 26.3729 21.412 26.2266 21.7047 25.9339C22.29 25.3486 22.29 24.4707 21.7047 23.8854L17.827 19.9346C20.3877 19.4956 21.9242 18.325 21.9973 18.325C22.6558 17.8128 22.8021 16.8617 22.29 16.2764Z" fill="white"/>
</svg>
