<svg width="25" height="24" viewBox="0 0 25 24" fill="none" xmlns="http://www.w3.org/2000/svg">
<g clip-path="url(#clip0_157_16414)">
<path d="M23.9644 6.03156C24.1684 6.56768 23.5417 7.81863 22.0841 9.78441C21.88 10.0525 21.6177 10.4099 21.297 10.8567C20.6265 11.6906 20.2476 12.2416 20.1601 12.5097C20.0144 12.8671 20.0727 13.2096 20.335 13.5373C20.4808 13.716 20.816 14.0734 21.3407 14.6095H21.3845V14.6542C22.5797 15.7562 23.3813 16.6944 23.7895 17.4688L23.8769 17.6475L23.9644 17.9826V18.4071L23.6583 18.7421L22.9149 18.8985L19.7228 18.9879C19.5188 19.0176 19.2783 18.9879 19.0013 18.8985C18.7244 18.8091 18.5131 18.7198 18.3673 18.6304L18.1049 18.4517C17.8426 18.273 17.5511 18.005 17.2304 17.6475C16.9097 17.2901 16.6255 16.9625 16.3777 16.6647C16.1299 16.3668 15.8749 16.1211 15.6125 15.9275C15.3501 15.7339 15.1169 15.6669 14.9129 15.7264C14.8837 15.7264 14.8473 15.7413 14.8036 15.7711C14.7598 15.8009 14.6869 15.8679 14.5849 15.9722C14.4829 16.0764 14.3954 16.203 14.3226 16.3519C14.2497 16.5008 14.1841 16.7168 14.1258 16.9997C14.0675 17.2827 14.0383 17.6178 14.0383 18.005C14.0383 18.1241 14.0238 18.2358 13.9946 18.34C13.9655 18.4443 13.9363 18.5262 13.9071 18.5858L13.8634 18.6304C13.6885 18.8091 13.4553 18.8985 13.1638 18.8985H11.7645C11.1523 18.9581 10.5329 18.8985 9.90612 18.7198C9.27937 18.5411 8.73278 18.3103 8.26636 18.0273C7.79994 17.7443 7.37724 17.4614 6.99828 17.1784C6.61931 16.8955 6.3278 16.6498 6.12374 16.4413L5.81765 16.1285C5.73019 16.069 5.61359 15.9498 5.46783 15.7711C5.32207 15.5924 5.02327 15.2052 4.57143 14.6095C4.11958 14.0138 3.67502 13.3735 3.23775 12.6884C2.80048 12.0034 2.29033 11.1024 1.70731 9.98546C1.12428 8.86854 0.58498 7.71439 0.0894072 6.523C0.0311045 6.37408 0.00195312 6.25494 0.00195312 6.16559C0.00195312 6.07623 0.0165288 6.00177 0.0456802 5.9422L0.0894072 5.89753C0.206013 5.71882 0.439223 5.62946 0.78904 5.62946H4.24347C4.33093 5.62946 4.41838 5.6518 4.50584 5.69648L4.72447 5.80817L4.7682 5.85285C4.91396 5.9422 5.01599 6.07623 5.07429 6.25494C5.2492 6.67192 5.44597 7.11125 5.6646 7.57291C5.88324 8.03457 6.05086 8.38454 6.16746 8.62282L6.34237 8.98023C6.60473 9.48657 6.84523 9.92589 7.06387 10.2982C7.2825 10.6705 7.47927 10.9609 7.65418 11.1694C7.82909 11.3779 8.004 11.5417 8.17891 11.6608C8.35382 11.78 8.49957 11.8396 8.61618 11.8396C8.73278 11.8396 8.84939 11.8247 8.96599 11.7949L9.00972 11.7279L9.16276 11.4375L9.33767 10.8567L9.44699 9.82909V8.22072C9.41784 7.89309 9.37411 7.5878 9.31581 7.30485C9.25751 7.02189 9.1992 6.82085 9.1409 6.70171L9.09717 6.56768C8.89312 6.26983 8.52872 6.07623 8.004 5.98688C7.91654 5.98688 7.9457 5.88263 8.09145 5.67414C8.23721 5.52522 8.39754 5.40608 8.57245 5.31673C9.00972 5.07845 10.0009 4.9742 11.5459 5.00399C12.2164 5.00399 12.7848 5.06356 13.2512 5.1827C13.397 5.21248 13.5282 5.2646 13.6448 5.33906C13.7614 5.41353 13.8488 5.51777 13.9071 5.6518C13.9655 5.78583 14.0092 5.91986 14.0383 6.05389C14.0675 6.18792 14.0821 6.38152 14.0821 6.63469V7.32719C14.0529 7.56546 14.0383 7.86331 14.0383 8.22072V9.29297C14.0383 9.38232 14.031 9.56103 14.0165 9.82909C14.0019 10.0972 13.9946 10.3056 13.9946 10.4546C13.9946 10.6035 14.0092 10.7748 14.0383 10.9684C14.0675 11.162 14.1185 11.3258 14.1914 11.4598C14.2643 11.5938 14.359 11.6906 14.4756 11.7502C14.5339 11.78 14.5995 11.8023 14.6724 11.8172C14.7452 11.8321 14.8546 11.7874 15.0003 11.6832C15.1461 11.5789 15.3064 11.43 15.4813 11.2364C15.6562 11.0428 15.8749 10.7524 16.1372 10.3652C16.3996 9.97801 16.6765 9.53125 16.968 9.02491C17.4636 8.13137 17.9155 7.16337 18.3236 6.12091C18.3527 6.06134 18.3892 5.99433 18.4329 5.91986C18.4766 5.8454 18.5276 5.79328 18.5859 5.76349H18.6297L18.6734 5.71882L18.8483 5.67414H19.1107L22.6963 5.62946C23.0169 5.59968 23.2866 5.61457 23.5052 5.67414C23.7239 5.73371 23.8478 5.80817 23.8769 5.89753L23.9644 6.03156Z" fill="white"/>
</g>
<defs>
<clipPath id="clip0_157_16414">
<rect width="24" height="24" fill="white" transform="translate(0.00195312 -0.000976562)"/>
</clipPath>
</defs>
</svg>
